<?xml version="1.0" standalone="no"?>
<!DOCTYPE svg PUBLIC "-//W3C//DTD SVG 20010904//EN"
 "http://www.w3.org/TR/2001/REC-SVG-20010904/DTD/svg10.dtd">
<svg version="1.0" xmlns="http://www.w3.org/2000/svg"
 width="1005.000000pt" height="248.000000pt" viewBox="0 0 1005.000000 248.000000"
 preserveAspectRatio="xMidYMid meet">

<g transform="translate(0.000000,248.000000) scale(0.100000,-0.100000)"
fill="#000000" stroke="none">
<path d="M1134 2272 c-76 -4 -91 -18 -104 -97 -11 -69 -40 -114 -94 -149 -79
-51 -163 -47 -253 15 -32 21 -63 39 -70 39 -31 0 -203 -174 -203 -206 0 -7 14
-29 30 -48 85 -96 79 -236 -14 -313 -38 -31 -95 -53 -139 -53 -13 0 -35 -9
-48 -19 -22 -17 -24 -28 -27 -127 -3 -132 5 -155 63 -167 113 -23 152 -47 192
-114 21 -37 27 -59 27 -107 0 -65 -9 -89 -55 -147 -16 -20 -29 -46 -29 -57 0
-24 130 -167 171 -188 31 -16 52 -9 109 36 36 28 108 44 162 36 95 -14 164
-95 175 -203 6 -52 8 -56 41 -70 26 -11 64 -14 138 -11 123 4 134 11 145 94
24 174 215 242 362 130 19 -15 44 -26 56 -26 27 0 189 153 197 187 5 18 -2 34
-25 64 -84 104 -81 211 7 302 37 38 107 67 163 67 48 0 59 30 59 157 0 132 -8
146 -83 156 -121 17 -199 103 -199 218 1 55 19 102 55 145 45 53 38 75 -58
170 -94 92 -114 100 -162 60 -107 -89 -242 -79 -325 25 -21 26 -32 53 -38 99
-5 34 -16 70 -25 80 -18 20 -88 27 -201 22z m177 -426 c291 -62 490 -355 436
-642 -8 -44 -27 -106 -41 -139 l-27 -59 -125 125 c-123 123 -125 126 -113 155
6 16 11 64 11 106 1 64 -4 86 -29 140 -36 74 -89 130 -158 166 -39 20 -69 26
-135 30 -95 4 -140 -7 -140 -37 0 -11 40 -60 90 -112 50 -50 90 -95 90 -98 0
-35 -22 -126 -32 -132 -6 -4 -38 -11 -71 -14 l-59 -7 -93 92 c-76 75 -96 91
-114 85 -20 -6 -24 -14 -35 -82 -8 -46 10 -137 36 -190 31 -63 116 -137 185
-163 66 -25 161 -29 218 -10 l37 12 124 -123 c67 -67 121 -127 118 -131 -10
-16 -110 -56 -171 -69 -77 -16 -194 -13 -268 6 -195 52 -365 229 -406 423 -16
81 -7 234 19 307 96 265 376 419 653 361z"/>
<path d="M5359 1833 l-1 -428 -19 42 c-11 23 -44 69 -74 101 -154 167 -437
210 -661 102 -69 -34 -162 -117 -189 -170 l-18 -35 -15 25 c-33 52 -149 156
-204 183 -31 15 -87 34 -125 42 -257 55 -505 -50 -606 -255 -31 -62 -32 -70
-32 -185 1 -110 3 -125 29 -179 56 -121 190 -221 336 -252 236 -50 474 31 582
197 l32 50 17 -33 c21 -40 90 -110 150 -150 102 -68 297 -96 445 -63 146 32
270 121 327 235 l26 53 3 -139 3 -139 148 -3 147 -3 0 716 0 715 -150 0 -150
0 -1 -427z m-1336 -400 c80 -47 117 -158 83 -248 -61 -159 -296 -166 -367 -10
-48 106 9 241 116 275 43 13 131 4 168 -17z m903 16 c139 -35 188 -221 85
-329 -74 -77 -203 -80 -282 -5 -104 98 -67 283 68 330 47 17 72 18 129 4z"/>
<path d="M8130 1545 l0 -715 145 0 145 0 0 52 0 52 33 -30 c75 -70 162 -99
276 -92 117 8 184 38 261 117 81 82 116 152 132 257 34 234 -99 455 -308 509
-74 19 -150 19 -226 -1 -58 -14 -129 -52 -143 -74 -21 -34 -25 14 -25 315 l0
325 -145 0 -145 0 0 -715z m539 -95 c91 -26 141 -95 141 -194 0 -129 -91 -208
-224 -192 -100 11 -166 89 -166 194 0 64 17 108 58 145 51 49 123 67 191 47z"/>
<path d="M6541 2215 c-292 -64 -516 -274 -581 -547 -24 -98 -25 -179 -6 -281
48 -252 271 -479 541 -553 174 -47 433 -20 577 61 l27 15 3 -37 3 -38 145 0
145 0 5 245 c6 274 12 302 79 347 45 30 146 32 209 3 l42 -19 25 47 24 47 1
-337 0 -338 145 0 145 0 0 429 0 429 -167 6 c-93 3 -193 8 -223 11 -76 9 -153
-21 -224 -86 l-55 -50 -3 58 -3 58 -145 0 -145 0 -5 -333 -5 -334 -44 91 -45
90 -30 -18 c-17 -11 -64 -29 -104 -41 -95 -29 -247 -25 -332 8 -110 43 -205
146 -240 260 -24 77 -25 125 -5 202 51 195 212 310 435 310 82 0 157 -18 231
-56 l47 -23 65 132 65 132 -41 27 c-120 80 -386 119 -556 83z"/>
<path d="M2540 2070 l0 -140 165 0 165 0 0 -550 0 -550 155 0 155 0 0 550 0
550 165 0 165 0 0 140 0 140 -485 0 -485 0 0 -140z"/>
<path d="M7832 2180 c-52 -38 -72 -76 -72 -140 0 -59 17 -97 60 -134 113 -94
282 -14 282 134 0 60 -22 103 -74 140 -34 25 -51 30 -98 30 -47 0 -64 -5 -98
-30z"/>
<path d="M5560 491 c0 -28 -2 -29 -34 -24 -27 4 -36 1 -50 -18 -34 -49 -12
-111 40 -110 82 1 74 -9 74 91 0 73 -3 90 -15 90 -10 0 -15 -10 -15 -29z m-12
-53 c20 -20 15 -66 -9 -78 -16 -9 -25 -8 -40 6 -21 19 -24 36 -9 65 12 21 40
25 58 7z"/>
<path d="M6340 430 c0 -93 17 -126 22 -44 6 88 68 81 68 -8 0 -21 5 -38 10
-38 13 0 13 86 0 111 -12 21 -50 25 -68 7 -9 -9 -12 -4 -12 25 0 20 -4 37 -10
37 -6 0 -10 -37 -10 -90z"/>
<path d="M2347 503 c-4 -3 -7 -42 -7 -85 0 -63 3 -78 15 -78 12 0 15 16 15 85
0 78 -5 96 -23 78z"/>
<path d="M4680 500 c0 -5 7 -10 15 -10 8 0 15 5 15 10 0 6 -7 10 -15 10 -8 0
-15 -4 -15 -10z"/>
<path d="M8230 500 c0 -5 7 -10 15 -10 8 0 15 5 15 10 0 6 -7 10 -15 10 -8 0
-15 -4 -15 -10z"/>
<path d="M3840 486 c0 -8 -8 -17 -17 -21 -17 -6 -17 -7 0 -16 12 -7 17 -23 17
-59 0 -47 2 -50 25 -50 14 0 25 5 25 10 0 6 -7 10 -15 10 -11 0 -15 11 -15 40
0 27 5 43 15 46 8 4 15 10 15 15 0 5 -7 9 -15 9 -8 0 -15 7 -15 15 0 8 -4 15
-10 15 -5 0 -10 -6 -10 -14z"/>
<path d="M9100 485 c0 -8 -7 -15 -15 -15 -8 0 -15 -4 -15 -9 0 -5 7 -11 15
-15 11 -4 15 -20 15 -56 0 -47 2 -50 25 -50 14 0 25 5 25 10 0 6 -7 10 -15 10
-11 0 -15 12 -15 45 0 33 4 45 15 45 8 0 15 5 15 10 0 6 -7 10 -15 10 -8 0
-15 7 -15 15 0 8 -4 15 -10 15 -5 0 -10 -7 -10 -15z"/>
<path d="M2575 457 c-10 -25 -1 -110 13 -115 8 -2 12 10 12 41 0 47 18 74 45
63 11 -4 15 -20 15 -56 0 -38 4 -50 15 -50 18 0 21 80 5 111 -11 20 -54 26
-65 9 -5 -8 -11 -7 -21 1 -11 9 -15 8 -19 -4z"/>
<path d="M2886 461 c-6 -10 40 -117 54 -126 11 -7 62 104 57 124 -2 10 -14 -4
-29 -34 l-26 -50 -21 48 c-21 48 -26 54 -35 38z"/>
<path d="M3210 450 c-20 -20 -26 -65 -12 -86 17 -26 53 -36 83 -24 16 7 26 16
23 21 -3 5 -14 4 -25 -2 -16 -8 -26 -6 -47 8 l-27 18 53 3 c47 3 52 5 52 26 0
50 -63 73 -100 36z m70 -15 c11 -13 7 -15 -24 -15 -34 0 -44 8 -29 23 11 12
40 8 53 -8z"/>
<path d="M3510 405 c0 -37 4 -65 10 -65 6 0 10 19 10 43 0 46 13 67 41 67 21
0 29 -20 29 -71 0 -21 5 -39 10 -39 14 0 12 104 -2 118 -7 7 -21 12 -33 12
-12 0 -26 -5 -33 -12 -9 -9 -12 -9 -12 0 0 7 -4 12 -10 12 -6 0 -10 -28 -10
-65z"/>
<path d="M4100 450 c-27 -27 -25 -66 6 -96 18 -19 31 -24 47 -19 12 4 30 7 40
6 14 0 17 10 17 62 l0 63 -45 2 c-34 1 -51 -4 -65 -18z m72 -17 c23 -21 23
-38 -2 -63 -38 -38 -85 11 -55 56 18 28 32 30 57 7z"/>
<path d="M4414 461 c-2 -2 -4 -31 -4 -63 0 -72 22 -77 30 -7 4 33 10 46 28 54
12 5 22 13 22 17 0 7 -68 6 -76 -1z"/>
<path d="M4686 463 c-3 -3 -6 -33 -6 -65 0 -45 3 -58 15 -58 12 0 15 13 15 59
0 56 -9 79 -24 64z"/>
<path d="M4920 448 c-27 -29 -25 -64 6 -94 19 -20 31 -24 52 -19 38 9 55 29
55 64 0 64 -70 94 -113 49z m83 -19 c13 -21 2 -65 -19 -73 -21 -8 -50 9 -57
33 -12 47 51 80 76 40z"/>
<path d="M5807 458 c-27 -21 -32 -70 -9 -98 21 -25 74 -32 94 -12 17 17 3 25
-21 12 -15 -8 -27 -8 -41 0 -33 18 -23 30 24 30 51 0 62 10 45 42 -21 40 -59
50 -92 26z m63 -23 c11 -13 7 -15 -24 -15 -35 0 -49 13 -23 23 22 9 34 7 47
-8z"/>
<path d="M6660 443 c-22 -28 -21 -66 3 -90 21 -20 61 -25 82 -9 25 18 14 31
-14 16 -15 -8 -27 -8 -41 0 -33 17 -23 29 27 32 55 3 67 24 34 57 -29 29 -65
27 -91 -6z m64 1 c28 -11 17 -24 -20 -24 -31 0 -35 2 -24 15 14 17 21 18 44 9z"/>
<path d="M6970 406 c0 -37 4 -66 10 -66 6 0 10 19 10 43 0 46 13 67 42 67 10
0 18 5 18 10 0 13 -37 13 -45 0 -5 -8 -11 -7 -21 1 -12 10 -14 1 -14 -55z"/>
<path d="M7240 405 c0 -37 4 -65 10 -65 6 0 10 19 10 43 0 46 13 67 42 67 10
0 18 5 18 10 0 14 -33 13 -48 -2 -9 -9 -12 -9 -12 0 0 7 -4 12 -10 12 -6 0
-10 -28 -10 -65z"/>
<path d="M7514 445 c-37 -56 9 -128 69 -106 12 4 28 6 35 4 9 -3 12 12 12 59
l0 64 -50 2 c-43 2 -52 -1 -66 -23z m81 -19 c28 -43 -12 -89 -53 -60 -26 18
-28 46 -6 68 22 22 41 20 59 -8z"/>
<path d="M7834 461 c-2 -2 -4 -31 -4 -63 0 -74 23 -77 28 -4 5 81 62 72 62
-10 0 -59 18 -56 22 2 6 88 68 81 68 -8 0 -21 5 -38 10 -38 13 0 13 86 0 111
-12 21 -50 25 -68 7 -8 -8 -15 -8 -24 0 -13 10 -84 12 -94 3z"/>
<path d="M8230 405 c0 -49 3 -66 13 -62 8 2 12 24 12 62 0 38 -4 60 -12 63
-10 3 -13 -14 -13 -63z"/>
<path d="M8466 448 c-31 -44 -15 -97 33 -113 23 -7 74 12 66 25 -4 7 -13 6
-26 -1 -16 -8 -26 -6 -47 8 l-27 18 53 3 c47 3 52 5 52 26 0 52 -75 76 -104
34z m74 -13 c11 -13 7 -15 -24 -15 -34 0 -44 8 -29 23 11 12 40 8 53 -8z"/>
<path d="M8770 405 c0 -37 4 -65 10 -65 6 0 10 19 10 43 0 46 13 67 41 67 21
0 29 -20 29 -71 0 -21 5 -39 10 -39 14 0 12 104 -2 118 -7 7 -21 12 -33 12
-12 0 -26 -5 -33 -12 -9 -9 -12 -9 -12 0 0 7 -4 12 -10 12 -6 0 -10 -28 -10
-65z"/>
<path d="M9354 445 c-37 -56 9 -128 69 -106 12 4 28 6 35 4 9 -3 12 12 12 59
l0 64 -50 2 c-43 2 -52 -1 -66 -23z m81 -19 c28 -43 -12 -89 -53 -60 -26 18
-28 46 -6 68 22 22 41 20 59 -8z"/>
<path d="M9682 458 c-23 -23 -13 -48 23 -64 40 -16 50 -50 13 -41 -13 2 -31 8
-40 12 -11 4 -18 3 -18 -4 0 -16 48 -33 71 -26 11 4 23 14 29 24 11 21 -9 44
-47 55 -13 4 -23 12 -23 17 0 16 27 21 49 9 17 -8 21 -8 21 4 0 25 -56 36 -78
14z"/>
</g>
</svg>
