{"scene":0,"asset":{"generator":"ImageToStl.com","version":"2.0"},"scenes":[{"name":"Scene","nodes":[0]}],"nodes":[{"name":"Node0","children":[1]},{"name":"Node1","mesh":0,"children":[2]},{"name":"Node2","mesh":1}],"materials":[{"name":"#CAD1EEFF","pbrMetallicRoughness":{"baseColorFactor":[0.7921569,0.81960785,0.93333334,1.0],"metallicFactor":0.05,"roughnessFactor":0.5},"doubleSided":true},{"name":"#A8FF61FF","pbrMetallicRoughness":{"baseColorFactor":[0.65882355,1.0,0.38039216,1.0],"metallicFactor":0.05,"roughnessFactor":0.5},"doubleSided":true}],"meshes":[{"name":"Mesh0","primitives":[{"indices":1,"material":0,"attributes":{"POSITION":0}}]},{"name":"Mesh0","primitives":[{"indices":3,"material":1,"attributes":{"POSITION":2}}]}],"accessors":[{"bufferView":0,"componentType":5126,"count":4016,"type":"VEC3","min":[-25.510784,-103.18173,0.0],"max":[14.731506,103.18173,177.8]},{"bufferView":1,"componentType":5123,"count":23412,"type":"SCALAR"},{"bufferView":2,"componentType":5126,"count":260,"type":"VEC3","min":[0.9629871,101.633484,0.0],"max":[13.1445,101.633484,177.8]},{"bufferView":3,"componentType":5123,"count":780,"type":"SCALAR"}],"bufferViews":[{"target":34962,"buffer":0,"byteLength":48192,"byteOffset":0},{"target":34963,"buffer":0,"byteLength":46824,"byteOffset":48192},{"target":34962,"buffer":0,"byteLength":3120,"byteOffset":95016},{"target":34963,"buffer":0,"byteLength":1560,"byteOffset":98136}],"buffers":[{"byteLength":99696,"uri":"data:application/octet-stream;base64,"}]}