{"scene":0,"asset":{"generator":"ImageToStl.com","version":"2.0"},"scenes":[{"name":"Scene","nodes":[0]}],"nodes":[{"name":"Node0","children":[1]},{"name":"Node1","mesh":0}],"materials":[{"name":"#808080FF","pbrMetallicRoughness":{"baseColorFactor":[0.5019608,0.5019608,0.5019608,1.0],"metallicFactor":0.05,"roughnessFactor":0.5},"doubleSided":true}],"meshes":[{"name":"Mesh0","primitives":[{"indices":1,"material":0,"attributes":{"POSITION":0}}]}],"accessors":[{"bufferView":0,"componentType":5126,"count":5832,"type":"VEC3","min":[0.0,-186.0,0.0],"max":[203.5,186.0,12.0]},{"bufferView":1,"componentType":5123,"count":35052,"type":"SCALAR"}],"bufferViews":[{"target":34962,"buffer":0,"byteLength":69984,"byteOffset":0},{"target":34963,"buffer":0,"byteLength":70104,"byteOffset":69984}],"buffers":[{"byteLength":140088,"uri":"data:application/octet-stream;base64,"}]}