{"scene":0,"asset":{"generator":"ImageToStl.com","version":"2.0"},"scenes":[{"name":"Scene","nodes":[0]}],"nodes":[{"name":"Node0","children":[1]},{"name":"Node1","mesh":0}],"materials":[{"name":"x1","pbrMetallicRoughness":{"baseColorFactor":[0.85,0.85,0.85,1.0],"metallicFactor":0.0,"roughnessFactor":1.0},"doubleSided":true}],"meshes":[{"name":"Mesh0","primitives":[{"indices":1,"material":0,"attributes":{"POSITION":0}}]}],"accessors":[{"bufferView":0,"componentType":5126,"count":650,"type":"VEC3","min":[-11.0,-6.0,0.0],"max":[11.0,6.0,26.0]},{"bufferView":1,"componentType":5123,"count":3900,"type":"SCALAR"}],"bufferViews":[{"target":34962,"buffer":0,"byteLength":7800,"byteOffset":0},{"target":34963,"buffer":0,"byteLength":7800,"byteOffset":7800}],"buffers":[{"byteLength":15600,"uri":"data:application/octet-stream;base64,"}]}