{"scene":0,"asset":{"generator":"ImageToStl.com","version":"2.0"},"scenes":[{"name":"Scene","nodes":[0]}],"nodes":[{"name":"Node0","children":[1]},{"name":"Node1","mesh":0}],"materials":[{"name":"x1","pbrMetallicRoughness":{"baseColorFactor":[0.85,0.85,0.85,1.0],"metallicFactor":0.0,"roughnessFactor":1.0},"doubleSided":true}],"meshes":[{"name":"Mesh0","primitives":[{"indices":1,"material":0,"attributes":{"POSITION":0}}]}],"accessors":[{"bufferView":0,"componentType":5126,"count":9062,"type":"VEC3","min":[-188.0,0.0,-12.5],"max":[188.0,10.0,12.5]},{"bufferView":1,"componentType":5123,"count":54504,"type":"SCALAR"}],"bufferViews":[{"target":34962,"buffer":0,"byteLength":108744,"byteOffset":0},{"target":34963,"buffer":0,"byteLength":109008,"byteOffset":108744}],"buffers":[{"byteLength":217752,"uri":"data:application/octet-stream;base64,"}]}