{"scene":0,"asset":{"generator":"ImageToStl.com","version":"2.0"},"scenes":[{"name":"Scene","nodes":[0]}],"nodes":[{"name":"Node0","children":[1]},{"name":"Node1","mesh":0}],"materials":[{"name":"x1","pbrMetallicRoughness":{"baseColorFactor":[0.85,0.85,0.85,1.0],"metallicFactor":0.0,"roughnessFactor":1.0},"doubleSided":true}],"meshes":[{"name":"Mesh0","primitives":[{"indices":1,"material":0,"attributes":{"POSITION":0}}]}],"accessors":[{"bufferView":0,"componentType":5126,"count":264,"type":"VEC3","min":[0.0,0.0,-7.5],"max":[20.0,5.0,7.5]},{"bufferView":1,"componentType":5123,"count":1584,"type":"SCALAR"}],"bufferViews":[{"target":34962,"buffer":0,"byteLength":3168,"byteOffset":0},{"target":34963,"buffer":0,"byteLength":3168,"byteOffset":3168}],"buffers":[{"byteLength":6336,"uri":"data:application/octet-stream;base64,"}]}